<svg xmlns="http://www.w3.org/2000/svg" xmlns:xlink="http://www.w3.org/1999/xlink" width="292.472" height="75.316" viewBox="0 0 292.472 75.316">
  <defs>
    <clipPath id="clip-path">
      <rect id="Rectangle_59" data-name="Rectangle 59" width="292.472" height="75.315" transform="translate(0 0)" fill="none"/>
    </clipPath>
    <clipPath id="clip-path-2">
      <path id="Path_66" data-name="Path 66" d="M0,49.949,7.2,75.315,26.243,53.3l22.2,8.726L56.471,0Z" fill="none"/>
    </clipPath>
  </defs>
  <g id="Group_65" data-name="Group 65" transform="translate(0 0.001)">
    <g id="Group_62" data-name="Group 62">
      <g id="Group_61" data-name="Group 61" clip-path="url(#clip-path)">
        <path id="Path_42" data-name="Path 42" d="M78.138,8.425a9.98,9.98,0,0,1,3.313.432,12.8,12.8,0,0,1,2,.914c.276.161.5.282.673.362a1.166,1.166,0,0,0,.5.122q.55,0,.759-1.519h.793q-.035.691-.086,1.621c-.035.622-.056,1.444-.069,2.468S86,15.2,86,16.88h-.794a11.355,11.355,0,0,0-.863-3.59,7.938,7.938,0,0,0-1.983-2.864,4.439,4.439,0,0,0-3.088-1.138,3.9,3.9,0,0,0-2.622.881,3.1,3.1,0,0,0-1.036,2.5,3.877,3.877,0,0,0,.656,2.261,8.309,8.309,0,0,0,1.984,1.914q1.327.966,3.364,2.381a31.641,31.641,0,0,1,2.9,2.139,9.048,9.048,0,0,1,2.053,2.415,6.384,6.384,0,0,1,.776,3.243A5.725,5.725,0,0,1,86.108,30.8a7.456,7.456,0,0,1-3.278,2.243,12.917,12.917,0,0,1-4.45.742,12.4,12.4,0,0,1-3.572-.414,16.643,16.643,0,0,1-2.259-.863,2.519,2.519,0,0,0-1.174-.483q-.552,0-.758,1.519h-.794q.067-.862.087-2.019t.034-2.984q.017-1.83.017-4.658h.793a18.128,18.128,0,0,0,.777,4.381,7.555,7.555,0,0,0,1.966,3.3,4.935,4.935,0,0,0,3.538,1.258,4.733,4.733,0,0,0,3.035-.932A3.233,3.233,0,0,0,81.243,29.2a4.791,4.791,0,0,0-1.432-3.554,24.407,24.407,0,0,0-3.674-2.9q-1.623-1.069-3.037-2.173A9.491,9.491,0,0,1,70.841,18.1a6.129,6.129,0,0,1-.846-3.3,5.6,5.6,0,0,1,1.139-3.622A6.662,6.662,0,0,1,74.153,9.1a11.755,11.755,0,0,1,3.985-.673" fill="#0e446d"/>
        <path id="Path_43" data-name="Path 43" d="M96.943,9.806V15.43h3.727v.69H96.943V30.232a1.891,1.891,0,0,0,.311,1.225,1.16,1.16,0,0,0,.931.362,2.108,2.108,0,0,0,1.087-.345,3.234,3.234,0,0,0,1.052-1.173l.553.345a5.853,5.853,0,0,1-1.812,2.277,4.922,4.922,0,0,1-3.019.862,6.427,6.427,0,0,1-2.019-.292,3.69,3.69,0,0,1-1.466-.88,3.583,3.583,0,0,1-.983-1.881,15.329,15.329,0,0,1-.224-2.915V16.12H88.593v-.69h2.761V11.117a13.382,13.382,0,0,0,2.984-.311,9.848,9.848,0,0,0,2.605-1" fill="#0e446d"/>
        <path id="Path_44" data-name="Path 44" d="M110.434,14.947a6.294,6.294,0,0,1,4.761,1.794q1.725,1.794,1.725,5.9H105.845l-.035-.655h6.418a17.116,17.116,0,0,0-.138-3.123,6.987,6.987,0,0,0-.673-2.294,1.386,1.386,0,0,0-1.225-.863q-1.035,0-1.759,1.484a14.037,14.037,0,0,0-.9,5.037l.139.241a4.261,4.261,0,0,0-.07.777v.845a9.352,9.352,0,0,0,.639,3.8,4.293,4.293,0,0,0,1.605,2,3.794,3.794,0,0,0,2,.587,6.174,6.174,0,0,0,2.052-.431,5.036,5.036,0,0,0,2.295-2.088l.587.207a8.676,8.676,0,0,1-1.294,2.64,7.564,7.564,0,0,1-2.329,2.139,6.548,6.548,0,0,1-3.417.845,8.582,8.582,0,0,1-4.071-.948,6.744,6.744,0,0,1-2.846-3,11.773,11.773,0,0,1-1.053-5.366,11.261,11.261,0,0,1,1.138-5.382,7.333,7.333,0,0,1,3.106-3.122,9.456,9.456,0,0,1,4.417-1.018" fill="#0e446d"/>
        <path id="Path_45" data-name="Path 45" d="M135.311,15.43v.725a2.828,2.828,0,0,0-1.242.862,7.263,7.263,0,0,0-1.174,2.277l-4.864,14.043q-.692-.069-1.381-.069t-1.414.069l-6.073-15.25a3.2,3.2,0,0,0-1.069-1.622,2,2,0,0,0-.932-.31V15.43q1.242.069,2.588.121t2.933.051q1.068,0,2.259-.051t2.226-.121v.725a9.544,9.544,0,0,0-1.19.068,1.052,1.052,0,0,0-.759.38q-.225.31.017,1.139l3.933,10.73-.379.587L131.1,22.4q1.068-3.14.362-4.641a2.581,2.581,0,0,0-2.295-1.6V15.43q.759.069,1.794.1t1.691.034q.655,0,1.449-.034a10.729,10.729,0,0,0,1.208-.1" fill="#0e446d"/>
        <path id="Path_46" data-name="Path 46" d="M144.557,14.947a6.294,6.294,0,0,1,4.761,1.794q1.725,1.794,1.725,5.9H139.968l-.035-.655h6.418a17.027,17.027,0,0,0-.138-3.123,6.963,6.963,0,0,0-.673-2.294,1.385,1.385,0,0,0-1.225-.863q-1.035,0-1.759,1.484a14.02,14.02,0,0,0-.9,5.037l.138.241a4.262,4.262,0,0,0-.07.777v.845a9.352,9.352,0,0,0,.639,3.8,4.3,4.3,0,0,0,1.6,2,3.794,3.794,0,0,0,2,.587,6.174,6.174,0,0,0,2.052-.431,5.036,5.036,0,0,0,2.295-2.088l.587.207a8.677,8.677,0,0,1-1.294,2.64,7.564,7.564,0,0,1-2.329,2.139,6.542,6.542,0,0,1-3.416.845,8.584,8.584,0,0,1-4.072-.948,6.744,6.744,0,0,1-2.846-3,11.774,11.774,0,0,1-1.052-5.366,11.249,11.249,0,0,1,1.138-5.382,7.326,7.326,0,0,1,3.1-3.122,9.462,9.462,0,0,1,4.417-1.018" fill="#0e446d"/>
        <path id="Path_47" data-name="Path 47" d="M165.846,14.947a6.463,6.463,0,0,1,2.433.379,3.53,3.53,0,0,1,1.4.966,4.144,4.144,0,0,1,.811,1.691,12.031,12.031,0,0,1,.258,2.8v9.315a3.029,3.029,0,0,0,.466,1.967,2.084,2.084,0,0,0,1.6.518V33.3q-.69-.033-2.053-.086t-2.64-.052q-1.415,0-2.725.052c-.874.035-1.531.064-1.967.086v-.724a1.565,1.565,0,0,0,1.346-.518,3.562,3.562,0,0,0,.38-1.967V19.122a4.732,4.732,0,0,0-.173-1.363,1.581,1.581,0,0,0-.587-.863,2.013,2.013,0,0,0-1.173-.293,2.746,2.746,0,0,0-2.07.914,3.257,3.257,0,0,0-.863,2.329V30.093a3.553,3.553,0,0,0,.38,1.967,1.562,1.562,0,0,0,1.345.518V33.3q-.656-.033-1.9-.086t-2.518-.052q-1.415,0-2.829.052c-.944.035-1.656.064-2.14.086v-.724a2.083,2.083,0,0,0,1.6-.518,3.03,3.03,0,0,0,.465-1.967v-10.9a4.562,4.562,0,0,0-.448-2.3,1.739,1.739,0,0,0-1.622-.741V15.43q1.1.1,2.14.1,1.553,0,2.95-.121a22.2,22.2,0,0,0,2.57-.361v2.794a4.8,4.8,0,0,1,2.26-2.243,7.852,7.852,0,0,1,3.295-.655" fill="#0e446d"/>
        <path id="Path_48" data-name="Path 48" d="M189.308,8.874v.69a1.144,1.144,0,0,0-.9.552,1.752,1.752,0,0,0-.154,1.087,6.682,6.682,0,0,0,.293,1.259l5.21,15.009-.932,1.346L197.1,16.775l.484.966-5.349,15.6c-.229-.024-.477-.04-.741-.052s-.523-.017-.776-.017-.507,0-.76.017-.494.028-.725.052l-7.866-21.565a3.828,3.828,0,0,0-1.035-1.708,2.032,2.032,0,0,0-1.069-.5v-.69c.735.023,1.622.046,2.656.069s2.024.035,2.968.035,1.793-.012,2.552-.035,1.38-.046,1.864-.069m24.773,0v.69a5.053,5.053,0,0,0-1.622,1.346,8.48,8.48,0,0,0-1.483,3.105l-5.969,19.322c-.231-.024-.472-.04-.725-.052s-.517-.017-.794-.017c-.229,0-.477,0-.741.017s-.513.028-.742.052l-7.246-22.048a2.692,2.692,0,0,0-.777-1.328,1.848,1.848,0,0,0-1.051-.4v-.69q1.069.035,2.518.069t2.933.035q1.553,0,2.932-.035t2.244-.069v.69a5.72,5.72,0,0,0-1.657.242.949.949,0,0,0-.673.81,4.493,4.493,0,0,0,.329,1.846l4.795,14.664-.9,1.76,3.692-11.766a14.821,14.821,0,0,0,.863-4.468,3.147,3.147,0,0,0-.811-2.346,3.259,3.259,0,0,0-2.191-.742v-.69q1.275.035,2.295.069t2.121.035q.725,0,1.432-.035t1.225-.069" fill="#0e446d"/>
        <path id="Path_49" data-name="Path 49" d="M225.157,14.947a3.12,3.12,0,0,1,1.863.5,2.863,2.863,0,0,1,1,1.277,4.113,4.113,0,0,1,.311,1.535,3.19,3.19,0,0,1-.811,2.277,2.776,2.776,0,0,1-2.122.863,3.087,3.087,0,0,1-2.1-.639,2.158,2.158,0,0,1-.725-1.708,3.08,3.08,0,0,1,.466-1.759,4.461,4.461,0,0,1,1.156-1.173,1.869,1.869,0,0,0-1,.138,2.685,2.685,0,0,0-1.346.776,4.447,4.447,0,0,0-.914,1.38,4.1,4.1,0,0,0-.328,1.6v9.73a2.743,2.743,0,0,0,.742,2.242,3.812,3.812,0,0,0,2.364.587V33.3q-.795-.033-2.347-.086t-3.208-.052q-1.483,0-2.985.052t-2.225.086v-.724a2.084,2.084,0,0,0,1.605-.518,3.03,3.03,0,0,0,.464-1.967v-10.9a4.561,4.561,0,0,0-.448-2.3,1.738,1.738,0,0,0-1.621-.741V15.43q1.1.1,2.139.1,1.553,0,2.95-.121a22.2,22.2,0,0,0,2.57-.361V17.88a5.184,5.184,0,0,1,1.087-1.553,4.848,4.848,0,0,1,1.553-1.018,4.992,4.992,0,0,1,1.915-.362" fill="#0e446d"/>
        <path id="Path_50" data-name="Path 50" d="M236.957,15.05V30.093a3.03,3.03,0,0,0,.466,1.968,2.083,2.083,0,0,0,1.6.516V33.3q-.69-.034-2.036-.086t-2.725-.052q-1.38,0-2.812.052T229.3,33.3v-.725a2.08,2.08,0,0,0,1.6-.516,3.03,3.03,0,0,0,.465-1.968V19.19a4.56,4.56,0,0,0-.448-2.294,1.741,1.741,0,0,0-1.621-.742V15.43q1.1.1,2.139.1,1.553,0,2.95-.122a22,22,0,0,0,2.57-.362m-3.036-8.626a3.986,3.986,0,0,1,2.536.725,2.526,2.526,0,0,1,.914,2.1,2.522,2.522,0,0,1-.914,2.1,4.8,4.8,0,0,1-5.072,0,2.522,2.522,0,0,1-.914-2.1,2.526,2.526,0,0,1,.914-2.1,3.984,3.984,0,0,1,2.536-.725" fill="#0e446d"/>
        <path id="Path_51" data-name="Path 51" d="M247.2,39.789a18.961,18.961,0,0,1-3.933-.362,6.633,6.633,0,0,1-2.622-1.07,2.1,2.1,0,0,1-.932-1.708,2.468,2.468,0,0,1,.967-1.881,6.981,6.981,0,0,1,2.966-1.328l.31.553a3.764,3.764,0,0,0-.828,1.155,2.856,2.856,0,0,0-.241,1.121,2.4,2.4,0,0,0,1.276,2.174,6.913,6.913,0,0,0,3.521.759,7.6,7.6,0,0,0,2.69-.431,3.932,3.932,0,0,0,1.76-1.225,2.936,2.936,0,0,0,.621-1.863,2.22,2.22,0,0,0-.741-1.69,4.56,4.56,0,0,0-2.985-.691h-2a7.676,7.676,0,0,1-2.554-.378,3.659,3.659,0,0,1-1.64-1.071,2.623,2.623,0,0,1-.569-1.725,3.422,3.422,0,0,1,1.209-2.64,12.353,12.353,0,0,1,3.347-2.018l.309.276a6.594,6.594,0,0,0-.983.724,1.4,1.4,0,0,0-.466,1.1q0,1.106,1.311,1.1h3.554a10.545,10.545,0,0,1,5.09,1.087,3.82,3.82,0,0,1,1.983,3.641,5.124,5.124,0,0,1-1.1,3.174,7.541,7.541,0,0,1-3.4,2.33,16.8,16.8,0,0,1-5.917.879m.45-13.836a9.053,9.053,0,0,1-5.125-1.346,4.665,4.665,0,0,1-2.019-4.175,4.613,4.613,0,0,1,2.019-4.174,10.634,10.634,0,0,1,10.23,0,4.6,4.6,0,0,1,2.035,4.174,4.648,4.648,0,0,1-2.035,4.175,9.068,9.068,0,0,1-5.1,1.346m0-.621q.759,0,1.224-1.07a10.775,10.775,0,0,0,.465-3.83,10.627,10.627,0,0,0-.465-3.812q-.467-1.053-1.224-1.053c-.531,0-.944.351-1.244,1.053a11.045,11.045,0,0,0-.448,3.812,11.2,11.2,0,0,0,.448,3.83c.3.713.713,1.07,1.244,1.07m5.485-7.384-.725-.241a5.206,5.206,0,0,1,1.707-2.3,4.1,4.1,0,0,1,2.538-.88,2.2,2.2,0,0,1,1.707.622,2.3,2.3,0,0,1,.569,1.621,2.077,2.077,0,0,1-.534,1.535,1.736,1.736,0,0,1-2.4.1,1.809,1.809,0,0,1-.588-1.311,4.407,4.407,0,0,1,.621-2.226l.207.207a5.306,5.306,0,0,0-1.949,1.1,5.506,5.506,0,0,0-1.155,1.76" fill="#0e446d"/>
        <path id="Path_52" data-name="Path 52" d="M267.32,6.321V17.845a4.961,4.961,0,0,1,2.294-2.243,7.852,7.852,0,0,1,3.295-.655,6.454,6.454,0,0,1,2.432.379,3.528,3.528,0,0,1,1.4.966,4.017,4.017,0,0,1,.794,1.691,12.893,12.893,0,0,1,.241,2.8v9.315a3.023,3.023,0,0,0,.466,1.967,2.08,2.08,0,0,0,1.6.518V33.3q-.655-.033-2.018-.086t-2.674-.052q-1.382,0-2.691.052t-2,.086v-.724a1.566,1.566,0,0,0,1.345-.518,3.573,3.573,0,0,0,.379-1.967V19.122a4.734,4.734,0,0,0-.172-1.363,1.622,1.622,0,0,0-.569-.863,1.931,1.931,0,0,0-1.156-.293,2.826,2.826,0,0,0-2.088.9,3.209,3.209,0,0,0-.879,2.346V30.093a3.44,3.44,0,0,0,.4,1.967,1.572,1.572,0,0,0,1.329.518V33.3q-.621-.033-1.864-.086t-2.552-.052q-1.381,0-2.813.052t-2.156.086v-.724a2.08,2.08,0,0,0,1.6-.518,3.023,3.023,0,0,0,.466-1.967V10.461a4.72,4.72,0,0,0-.431-2.294,1.735,1.735,0,0,0-1.639-.742V6.7q1.1.105,2.139.1,1.587,0,2.967-.121a22.3,22.3,0,0,0,2.554-.362" fill="#0e446d"/>
        <path id="Path_53" data-name="Path 53" d="M288.539,9.806V15.43h3.726v.69h-3.726V30.232a1.891,1.891,0,0,0,.31,1.225,1.16,1.16,0,0,0,.931.362,2.1,2.1,0,0,0,1.087-.345A3.227,3.227,0,0,0,291.92,30.3l.552.345a5.844,5.844,0,0,1-1.812,2.277,4.916,4.916,0,0,1-3.018.862,6.427,6.427,0,0,1-2.019-.292,3.693,3.693,0,0,1-1.467-.88,3.583,3.583,0,0,1-.983-1.881,15.33,15.33,0,0,1-.224-2.915V16.12h-2.761v-.69h2.761V11.117a13.391,13.391,0,0,0,2.985-.311,9.848,9.848,0,0,0,2.605-1" fill="#0e446d"/>
        <path id="Path_54" data-name="Path 54" d="M78.277,42.069v.69a5.922,5.922,0,0,0-1.777.259,1.293,1.293,0,0,0-.811.828,6.259,6.259,0,0,0-.207,1.88V62.84a6.283,6.283,0,0,0,.207,1.864,1.243,1.243,0,0,0,.811.827,7.042,7.042,0,0,0,1.777.276V66.5q-.793-.069-1.984-.087t-2.4-.017q-1.345,0-2.519.017t-1.9.087v-.691a7.058,7.058,0,0,0,1.777-.276,1.247,1.247,0,0,0,.811-.827,6.323,6.323,0,0,0,.206-1.864V45.726a6.3,6.3,0,0,0-.206-1.88,1.3,1.3,0,0,0-.811-.828,5.933,5.933,0,0,0-1.777-.259v-.69q.725.034,1.9.069t2.519.035q1.208,0,2.4-.035t1.984-.069" fill="#0e446d"/>
        <path id="Path_55" data-name="Path 55" d="M92.32,48.245a6.042,6.042,0,0,1,2.191.345,3.971,3.971,0,0,1,1.466.966,3.929,3.929,0,0,1,.932,1.725,11.314,11.314,0,0,1,.276,2.794v9.213a2.525,2.525,0,0,0,.6,1.967,3.107,3.107,0,0,0,2.018.517V66.5q-.586-.035-1.794-.087t-2.346-.052q-1.139,0-2.226.052T91.8,66.5v-.725a2.442,2.442,0,0,0,1.76-.517,2.8,2.8,0,0,0,.518-1.967V53.316a10.442,10.442,0,0,0-.173-1.967,2.559,2.559,0,0,0-.776-1.449,2.669,2.669,0,0,0-1.846-.551,4.139,4.139,0,0,0-3.5,1.811,7.348,7.348,0,0,0-1.329,4.468v7.66a2.8,2.8,0,0,0,.518,1.967,2.442,2.442,0,0,0,1.76.517V66.5q-.554-.035-1.64-.087t-2.225-.052q-1.138,0-2.346.052t-1.794.087v-.725a3.111,3.111,0,0,0,2.018-.517,2.525,2.525,0,0,0,.6-1.967v-10.8a3.853,3.853,0,0,0-.552-2.294,2.443,2.443,0,0,0-2.07-.742v-.725q1.1.1,2.139.1a14.545,14.545,0,0,0,1.915-.121,9.683,9.683,0,0,0,1.673-.361V52.42a6.026,6.026,0,0,1,2.5-3.261,6.7,6.7,0,0,1,3.364-.914" fill="#0e446d"/>
        <path id="Path_56" data-name="Path 56" d="M116.782,48.728v.69a2.068,2.068,0,0,0-1.208.586,4.846,4.846,0,0,0-1.035,1.829l-5.658,14.836h-.587l-6.348-15.284a3.327,3.327,0,0,0-1.087-1.639,2,2,0,0,0-.914-.293v-.725c.459.023.937.052,1.431.086s1.03.052,1.605.052q1.069,0,2.259-.034t2.226-.1v.725a8.794,8.794,0,0,0-1.535.121,1.015,1.015,0,0,0-.863.673,3.2,3.2,0,0,0,.328,1.9l4.313,10.661-.207.173,3.933-10.316q.656-1.726.156-2.415a3.154,3.154,0,0,0-2.33-.829v-.69c.6.023,1.1.047,1.5.069s.868.035,1.4.035,1.006-.011,1.432-.035.822-.046,1.19-.069" fill="#0e446d"/>
        <path id="Path_57" data-name="Path 57" d="M125.96,48.245a6.142,6.142,0,0,1,4.744,1.846q1.709,1.845,1.708,5.744h-12.18l-.034-.655h8.9a11.326,11.326,0,0,0-.276-3.122,5.4,5.4,0,0,0-1.087-2.295,2.41,2.41,0,0,0-1.915-.863,3.523,3.523,0,0,0-2.812,1.587,9.388,9.388,0,0,0-1.467,5.037l.1.139q-.069.518-.1,1.139t-.034,1.242a9.8,9.8,0,0,0,.759,4.036,6.194,6.194,0,0,0,1.984,2.571,4.3,4.3,0,0,0,2.536.879,5.609,5.609,0,0,0,2.864-.759,5.77,5.77,0,0,0,2.208-2.691l.69.276a7.1,7.1,0,0,1-1.242,2.208,6.644,6.644,0,0,1-2.174,1.743,6.554,6.554,0,0,1-3.036.672,7.731,7.731,0,0,1-4.261-1.138,7.385,7.385,0,0,1-2.726-3.157,10.78,10.78,0,0,1-.949-4.64,12.9,12.9,0,0,1,.966-5.228,7.722,7.722,0,0,1,2.726-3.382,7.156,7.156,0,0,1,4.106-1.189" fill="#0e446d"/>
        <path id="Path_58" data-name="Path 58" d="M141.211,48.245a5.548,5.548,0,0,1,2.346.448,6.567,6.567,0,0,1,1.415.828q1.139.931,1.38-1.242h.794q-.07.968-.1,2.294t-.035,3.571h-.793a11.126,11.126,0,0,0-.708-2.484,4.89,4.89,0,0,0-1.466-1.983,3.893,3.893,0,0,0-2.518-.777,3.051,3.051,0,0,0-2.019.673,2.428,2.428,0,0,0-.811,1.984,2.678,2.678,0,0,0,.621,1.777,6.981,6.981,0,0,0,1.622,1.38q1,.639,2.173,1.4a23.307,23.307,0,0,1,3.348,2.588,4.544,4.544,0,0,1,1.38,3.45,4.206,4.206,0,0,1-.829,2.658,5.187,5.187,0,0,1-2.156,1.621,7.527,7.527,0,0,1-2.915.551,8.161,8.161,0,0,1-1.433-.12,7.066,7.066,0,0,1-1.293-.362,6.553,6.553,0,0,1-.707-.414q-.363-.242-.708-.518a.411.411,0,0,0-.621.017,2.3,2.3,0,0,0-.414,1.156h-.794q.069-1.1.1-2.691t.035-4.209h.793a19.847,19.847,0,0,0,.69,3.381A4.647,4.647,0,0,0,139,65.478a4.062,4.062,0,0,0,2.691.812,3.519,3.519,0,0,0,2.053-.725,2.925,2.925,0,0,0,1.018-2.553,3.154,3.154,0,0,0-1.1-2.485,22.931,22.931,0,0,0-2.795-2.035q-1.242-.793-2.329-1.587a7.223,7.223,0,0,1-1.76-1.795,4.789,4.789,0,0,1,.035-4.951,4.142,4.142,0,0,1,1.88-1.449,6.774,6.774,0,0,1,2.519-.465" fill="#0e446d"/>
        <path id="Path_59" data-name="Path 59" d="M156.012,43v5.762h5.106v.69h-5.106V62.805a3.418,3.418,0,0,0,.587,2.277,2.061,2.061,0,0,0,1.621.655,2.341,2.341,0,0,0,1.795-.844,7.249,7.249,0,0,0,1.31-2.847l.691.173a7.872,7.872,0,0,1-1.363,3.381,3.625,3.625,0,0,1-3.122,1.379,5.436,5.436,0,0,1-1.933-.292,4.106,4.106,0,0,1-1.346-.846,4.289,4.289,0,0,1-1.052-1.9,11.785,11.785,0,0,1-.293-2.932V49.452H149.6v-.69h3.312V43.483c.575-.022,1.126-.069,1.656-.138A6.687,6.687,0,0,0,156.012,43" fill="#0e446d"/>
        <path id="Path_60" data-name="Path 60" d="M174.056,48.245a5.852,5.852,0,0,1,2.1.345,3.947,3.947,0,0,1,1.484.966,3.693,3.693,0,0,1,.9,1.793,13.023,13.023,0,0,1,.242,2.726v9.213a2.525,2.525,0,0,0,.6,1.967,3.114,3.114,0,0,0,2.019.517V66.5q-.588-.035-1.794-.087t-2.347-.052q-1.139,0-2.225.052T173.4,66.5v-.725a2.445,2.445,0,0,0,1.76-.517,2.809,2.809,0,0,0,.517-1.967V53.316a13.12,13.12,0,0,0-.138-1.967,2.537,2.537,0,0,0-.69-1.449,2.468,2.468,0,0,0-1.794-.551,3.772,3.772,0,0,0-2.4.828A5.528,5.528,0,0,0,169,52.436a8.133,8.133,0,0,0-.6,3.192v7.66a2.8,2.8,0,0,0,.518,1.967,2.439,2.439,0,0,0,1.759.517V66.5q-.552-.035-1.639-.087t-2.225-.052q-1.14,0-2.347.052t-1.793.087v-.725a3.113,3.113,0,0,0,2.018-.517,2.529,2.529,0,0,0,.6-1.967v-10.8a3.86,3.86,0,0,0-.552-2.294,2.444,2.444,0,0,0-2.07-.742v-.725c.735.07,1.449.1,2.138.1a14.534,14.534,0,0,0,1.915-.121,9.694,9.694,0,0,0,1.674-.361V52.42a6.412,6.412,0,0,1,2.449-3.209,6,6,0,0,1,3.209-.966m10.386,0a5.847,5.847,0,0,1,2.1.345,3.947,3.947,0,0,1,1.484.966,3.693,3.693,0,0,1,.9,1.793,13.023,13.023,0,0,1,.242,2.726v9.213a2.529,2.529,0,0,0,.6,1.967,3.11,3.11,0,0,0,2.019.517V66.5q-.588-.035-1.794-.087t-2.346-.052q-1.14,0-2.226.052c-.724.035-1.271.064-1.638.087v-.725a2.44,2.44,0,0,0,1.759-.517,2.8,2.8,0,0,0,.517-1.967V53.316a12.99,12.99,0,0,0-.138-1.967,2.525,2.525,0,0,0-.69-1.449,2.468,2.468,0,0,0-1.794-.551,4,4,0,0,0-3.329,1.793,7.276,7.276,0,0,0-1.328,4.452l-.1-3.209a6.037,6.037,0,0,1,2.519-3.261,6.617,6.617,0,0,1,3.243-.879" fill="#0e446d"/>
        <path id="Path_61" data-name="Path 61" d="M201.693,48.245a6.144,6.144,0,0,1,4.744,1.846q1.709,1.845,1.708,5.744h-12.18l-.034-.655h8.9a11.325,11.325,0,0,0-.276-3.122,5.4,5.4,0,0,0-1.087-2.295,2.41,2.41,0,0,0-1.915-.863,3.523,3.523,0,0,0-2.812,1.587,9.38,9.38,0,0,0-1.466,5.037l.1.139q-.07.518-.1,1.139t-.035,1.242A9.778,9.778,0,0,0,198,62.08a6.176,6.176,0,0,0,1.983,2.571,4.3,4.3,0,0,0,2.536.879,5.609,5.609,0,0,0,2.864-.759,5.776,5.776,0,0,0,2.208-2.691l.69.276a7.1,7.1,0,0,1-1.242,2.208,6.661,6.661,0,0,1-2.173,1.743,6.561,6.561,0,0,1-3.037.672,7.731,7.731,0,0,1-4.261-1.138,7.378,7.378,0,0,1-2.726-3.157,10.8,10.8,0,0,1-.949-4.64,12.878,12.878,0,0,1,.967-5.228,7.715,7.715,0,0,1,2.726-3.382,7.15,7.15,0,0,1,4.1-1.189" fill="#0e446d"/>
        <path id="Path_62" data-name="Path 62" d="M222.36,48.245a6.032,6.032,0,0,1,2.19.345,3.808,3.808,0,0,1,2.4,2.691,11.314,11.314,0,0,1,.276,2.794v9.213a2.525,2.525,0,0,0,.6,1.967,3.109,3.109,0,0,0,2.018.517V66.5q-.587-.035-1.794-.087t-2.346-.052q-1.139,0-2.226.052t-1.639.087v-.725a2.442,2.442,0,0,0,1.76-.517,2.8,2.8,0,0,0,.518-1.967V53.316a10.444,10.444,0,0,0-.173-1.967,2.56,2.56,0,0,0-.776-1.449,2.669,2.669,0,0,0-1.846-.551,4.139,4.139,0,0,0-3.5,1.811,7.348,7.348,0,0,0-1.328,4.468v7.66a2.8,2.8,0,0,0,.517,1.967,2.442,2.442,0,0,0,1.759.517V66.5q-.552-.035-1.639-.087t-2.225-.052q-1.139,0-2.346.052t-1.794.087v-.725a3.111,3.111,0,0,0,2.018-.517,2.529,2.529,0,0,0,.6-1.967v-10.8a3.853,3.853,0,0,0-.552-2.294,2.444,2.444,0,0,0-2.07-.742v-.725q1.1.1,2.139.1a14.534,14.534,0,0,0,1.915-.121,9.715,9.715,0,0,0,1.674-.361V52.42a6.021,6.021,0,0,1,2.5-3.261,6.7,6.7,0,0,1,3.364-.914" fill="#0e446d"/>
        <path id="Path_63" data-name="Path 63" d="M236.92,43v5.762h5.106v.69H236.92V62.805a3.418,3.418,0,0,0,.587,2.277,2.061,2.061,0,0,0,1.621.655,2.338,2.338,0,0,0,1.794-.844,7.234,7.234,0,0,0,1.311-2.847l.691.173a7.884,7.884,0,0,1-1.363,3.381,3.625,3.625,0,0,1-3.122,1.379,5.433,5.433,0,0,1-1.933-.292,4.1,4.1,0,0,1-1.346-.846,4.291,4.291,0,0,1-1.053-1.9,11.84,11.84,0,0,1-.292-2.932V49.452H230.5v-.69h3.313V43.483c.575-.022,1.126-.069,1.656-.138A6.687,6.687,0,0,0,236.92,43" fill="#0e446d"/>
        <path id="Path_64" data-name="Path 64" d="M249.755,48.245a5.544,5.544,0,0,1,2.346.448,6.543,6.543,0,0,1,1.415.828q1.138.931,1.38-1.242h.794q-.07.968-.1,2.294t-.034,3.571h-.794a11.176,11.176,0,0,0-.707-2.484,4.9,4.9,0,0,0-1.467-1.983,3.893,3.893,0,0,0-2.518-.777,3.051,3.051,0,0,0-2.019.673,2.428,2.428,0,0,0-.811,1.984,2.673,2.673,0,0,0,.622,1.777,6.974,6.974,0,0,0,1.621,1.38q1,.639,2.173,1.4A23.183,23.183,0,0,1,255,58.7a4.541,4.541,0,0,1,1.381,3.45,4.212,4.212,0,0,1-.828,2.658,5.2,5.2,0,0,1-2.157,1.621,7.527,7.527,0,0,1-2.915.551,8.142,8.142,0,0,1-1.432-.12,7.054,7.054,0,0,1-1.294-.362,6.661,6.661,0,0,1-.708-.414c-.241-.161-.478-.333-.707-.518a.411.411,0,0,0-.621.017,2.289,2.289,0,0,0-.414,1.156h-.793q.067-1.1.1-2.691t.035-4.209h.793a19.844,19.844,0,0,0,.69,3.381,4.647,4.647,0,0,0,1.415,2.259,4.06,4.06,0,0,0,2.691.812,3.519,3.519,0,0,0,2.053-.725,2.925,2.925,0,0,0,1.018-2.553,3.151,3.151,0,0,0-1.105-2.485,22.912,22.912,0,0,0-2.794-2.035q-1.242-.793-2.329-1.587a7.223,7.223,0,0,1-1.76-1.795,4.789,4.789,0,0,1,.035-4.951,4.142,4.142,0,0,1,1.88-1.449,6.774,6.774,0,0,1,2.519-.465" fill="#0e446d"/>
      </g>
    </g>
    <g id="Group_64" data-name="Group 64">
      <g id="Group_63" data-name="Group 63" clip-path="url(#clip-path-2)">
        <rect id="Rectangle_60" data-name="Rectangle 60" width="0.543" height="75.315" transform="translate(0 0)" fill="#7698a8"/>
        <rect id="Rectangle_61" data-name="Rectangle 61" width="0.543" height="75.315" transform="translate(0.543 0)" fill="#7698a8"/>
        <rect id="Rectangle_62" data-name="Rectangle 62" width="0.543" height="75.315" transform="translate(1.086 0)" fill="#7698a8"/>
        <rect id="Rectangle_63" data-name="Rectangle 63" width="0.543" height="75.315" transform="translate(1.629 0)" fill="#7698a8"/>
        <rect id="Rectangle_64" data-name="Rectangle 64" width="0.543" height="75.315" transform="translate(2.172 0)" fill="#7698a8"/>
        <rect id="Rectangle_65" data-name="Rectangle 65" width="0.543" height="75.315" transform="translate(2.715 0)" fill="#7597a8"/>
        <rect id="Rectangle_66" data-name="Rectangle 66" width="0.543" height="75.315" transform="translate(3.258 0)" fill="#7597a7"/>
        <rect id="Rectangle_67" data-name="Rectangle 67" width="0.543" height="75.315" transform="translate(3.801 0)" fill="#7597a7"/>
        <rect id="Rectangle_68" data-name="Rectangle 68" width="0.543" height="75.315" transform="translate(4.344 0)" fill="#7497a7"/>
        <rect id="Rectangle_69" data-name="Rectangle 69" width="0.543" height="75.315" transform="translate(4.887 0)" fill="#7497a7"/>
        <rect id="Rectangle_70" data-name="Rectangle 70" width="0.543" height="75.315" transform="translate(5.43 0)" fill="#7496a7"/>
        <rect id="Rectangle_71" data-name="Rectangle 71" width="0.543" height="75.315" transform="translate(5.973 0)" fill="#7396a7"/>
        <rect id="Rectangle_72" data-name="Rectangle 72" width="0.543" height="75.315" transform="translate(6.516 0)" fill="#7396a6"/>
        <rect id="Rectangle_73" data-name="Rectangle 73" width="0.543" height="75.315" transform="translate(7.059 0)" fill="#7395a6"/>
        <rect id="Rectangle_74" data-name="Rectangle 74" width="0.543" height="75.315" transform="translate(7.602 0)" fill="#7295a6"/>
        <rect id="Rectangle_75" data-name="Rectangle 75" width="0.543" height="75.315" transform="translate(8.145 0)" fill="#7295a6"/>
        <rect id="Rectangle_76" data-name="Rectangle 76" width="0.543" height="75.315" transform="translate(8.688 0)" fill="#7194a5"/>
        <rect id="Rectangle_77" data-name="Rectangle 77" width="0.543" height="75.315" transform="translate(9.231 0)" fill="#7194a5"/>
        <rect id="Rectangle_78" data-name="Rectangle 78" width="0.543" height="75.315" transform="translate(9.774 0)" fill="#7093a5"/>
        <rect id="Rectangle_79" data-name="Rectangle 79" width="0.543" height="75.315" transform="translate(10.317 0)" fill="#7093a4"/>
        <rect id="Rectangle_80" data-name="Rectangle 80" width="0.543" height="75.315" transform="translate(10.86 0)" fill="#6f92a4"/>
        <rect id="Rectangle_81" data-name="Rectangle 81" width="0.543" height="75.315" transform="translate(11.403 0)" fill="#6f92a4"/>
        <rect id="Rectangle_82" data-name="Rectangle 82" width="0.543" height="75.315" transform="translate(11.946 0)" fill="#6e91a3"/>
        <rect id="Rectangle_83" data-name="Rectangle 83" width="0.543" height="75.315" transform="translate(12.489 0)" fill="#6d91a3"/>
        <rect id="Rectangle_84" data-name="Rectangle 84" width="0.543" height="75.315" transform="translate(13.032 0)" fill="#6d90a3"/>
        <rect id="Rectangle_85" data-name="Rectangle 85" width="0.543" height="75.315" transform="translate(13.575 0)" fill="#6c90a2"/>
        <rect id="Rectangle_86" data-name="Rectangle 86" width="0.543" height="75.315" transform="translate(14.118 0)" fill="#6b8fa2"/>
        <rect id="Rectangle_87" data-name="Rectangle 87" width="0.543" height="75.315" transform="translate(14.661 0)" fill="#6b8fa2"/>
        <rect id="Rectangle_88" data-name="Rectangle 88" width="0.543" height="75.315" transform="translate(15.204 0)" fill="#6a8ea1"/>
        <rect id="Rectangle_89" data-name="Rectangle 89" width="0.543" height="75.315" transform="translate(15.747 0)" fill="#698ea1"/>
        <rect id="Rectangle_90" data-name="Rectangle 90" width="0.543" height="75.315" transform="translate(16.29 0)" fill="#688da0"/>
        <rect id="Rectangle_91" data-name="Rectangle 91" width="0.543" height="75.315" transform="translate(16.833 0)" fill="#688ca0"/>
        <rect id="Rectangle_92" data-name="Rectangle 92" width="0.543" height="75.315" transform="translate(17.376 0)" fill="#678c9f"/>
        <rect id="Rectangle_93" data-name="Rectangle 93" width="0.543" height="75.315" transform="translate(17.919 0)" fill="#668b9f"/>
        <rect id="Rectangle_94" data-name="Rectangle 94" width="0.543" height="75.315" transform="translate(18.461 0)" fill="#658b9f"/>
        <rect id="Rectangle_95" data-name="Rectangle 95" width="0.543" height="75.315" transform="translate(19.004 0)" fill="#658a9e"/>
        <rect id="Rectangle_96" data-name="Rectangle 96" width="0.543" height="75.315" transform="translate(19.547 0)" fill="#64899e"/>
        <rect id="Rectangle_97" data-name="Rectangle 97" width="0.543" height="75.315" transform="translate(20.09 0)" fill="#63899d"/>
        <rect id="Rectangle_98" data-name="Rectangle 98" width="0.543" height="75.315" transform="translate(20.633 0)" fill="#62889d"/>
        <rect id="Rectangle_99" data-name="Rectangle 99" width="0.543" height="75.315" transform="translate(21.176 0)" fill="#61879c"/>
        <rect id="Rectangle_100" data-name="Rectangle 100" width="0.543" height="75.315" transform="translate(21.719 0)" fill="#60869c"/>
        <rect id="Rectangle_101" data-name="Rectangle 101" width="0.543" height="75.315" transform="translate(22.262 0)" fill="#5f869b"/>
        <rect id="Rectangle_102" data-name="Rectangle 102" width="0.543" height="75.315" transform="translate(22.805 0)" fill="#5e859b"/>
        <rect id="Rectangle_103" data-name="Rectangle 103" width="0.543" height="75.315" transform="translate(23.348 0)" fill="#5d849a"/>
        <rect id="Rectangle_104" data-name="Rectangle 104" width="0.543" height="75.315" transform="translate(23.891 0)" fill="#5d839a"/>
        <rect id="Rectangle_105" data-name="Rectangle 105" width="0.543" height="75.315" transform="translate(24.434 0)" fill="#5c8399"/>
        <rect id="Rectangle_106" data-name="Rectangle 106" width="0.543" height="75.315" transform="translate(24.977 0)" fill="#5b8298"/>
        <rect id="Rectangle_107" data-name="Rectangle 107" width="0.543" height="75.315" transform="translate(25.52 0)" fill="#5a8198"/>
        <rect id="Rectangle_108" data-name="Rectangle 108" width="0.543" height="75.315" transform="translate(26.063 0)" fill="#598097"/>
        <rect id="Rectangle_109" data-name="Rectangle 109" width="0.543" height="75.315" transform="translate(26.606 0)" fill="#587f97"/>
        <rect id="Rectangle_110" data-name="Rectangle 110" width="0.543" height="75.315" transform="translate(27.149 0)" fill="#577f96"/>
        <rect id="Rectangle_111" data-name="Rectangle 111" width="0.543" height="75.315" transform="translate(27.692 0)" fill="#557e96"/>
        <rect id="Rectangle_112" data-name="Rectangle 112" width="0.543" height="75.315" transform="translate(28.235 0)" fill="#547d95"/>
        <rect id="Rectangle_113" data-name="Rectangle 113" width="0.543" height="75.315" transform="translate(28.778 0)" fill="#537c94"/>
        <rect id="Rectangle_114" data-name="Rectangle 114" width="0.543" height="75.315" transform="translate(29.321 0)" fill="#527b94"/>
        <rect id="Rectangle_115" data-name="Rectangle 115" width="0.543" height="75.315" transform="translate(29.864 0)" fill="#517a93"/>
        <rect id="Rectangle_116" data-name="Rectangle 116" width="0.543" height="75.315" transform="translate(30.407 0)" fill="#507992"/>
        <rect id="Rectangle_117" data-name="Rectangle 117" width="0.543" height="75.315" transform="translate(30.95 0)" fill="#4f7892"/>
        <rect id="Rectangle_118" data-name="Rectangle 118" width="0.543" height="75.315" transform="translate(31.493 0)" fill="#4e7891"/>
        <rect id="Rectangle_119" data-name="Rectangle 119" width="0.543" height="75.315" transform="translate(32.036 0)" fill="#4d7791"/>
        <rect id="Rectangle_120" data-name="Rectangle 120" width="0.543" height="75.315" transform="translate(32.579 0)" fill="#4b7690"/>
        <rect id="Rectangle_121" data-name="Rectangle 121" width="0.543" height="75.315" transform="translate(33.122 0)" fill="#4a758f"/>
        <rect id="Rectangle_122" data-name="Rectangle 122" width="0.543" height="75.315" transform="translate(33.665 0)" fill="#49748f"/>
        <rect id="Rectangle_123" data-name="Rectangle 123" width="0.543" height="75.315" transform="translate(34.208 0)" fill="#48738e"/>
        <rect id="Rectangle_124" data-name="Rectangle 124" width="0.543" height="75.315" transform="translate(34.751 0)" fill="#47728d"/>
        <rect id="Rectangle_125" data-name="Rectangle 125" width="0.543" height="75.315" transform="translate(35.294 0)" fill="#45718c"/>
        <rect id="Rectangle_126" data-name="Rectangle 126" width="0.543" height="75.315" transform="translate(35.837 0)" fill="#44708c"/>
        <rect id="Rectangle_127" data-name="Rectangle 127" width="0.543" height="75.315" transform="translate(36.38 0)" fill="#436f8b"/>
        <rect id="Rectangle_128" data-name="Rectangle 128" width="0.543" height="75.315" transform="translate(36.923 0)" fill="#426e8a"/>
        <rect id="Rectangle_129" data-name="Rectangle 129" width="0.543" height="75.315" transform="translate(37.466 0)" fill="#406d8a"/>
        <rect id="Rectangle_130" data-name="Rectangle 130" width="0.543" height="75.315" transform="translate(38.009 0)" fill="#3f6c89"/>
        <rect id="Rectangle_131" data-name="Rectangle 131" width="0.543" height="75.315" transform="translate(38.552 0)" fill="#3e6b88"/>
        <rect id="Rectangle_132" data-name="Rectangle 132" width="0.543" height="75.315" transform="translate(39.095 0)" fill="#3c6a87"/>
        <rect id="Rectangle_133" data-name="Rectangle 133" width="0.543" height="75.315" transform="translate(39.638 0)" fill="#3b6887"/>
        <rect id="Rectangle_134" data-name="Rectangle 134" width="0.543" height="75.315" transform="translate(40.181 0)" fill="#3a6786"/>
        <rect id="Rectangle_135" data-name="Rectangle 135" width="0.543" height="75.315" transform="translate(40.724 0)" fill="#386685"/>
        <rect id="Rectangle_136" data-name="Rectangle 136" width="0.543" height="75.315" transform="translate(41.267 0)" fill="#376584"/>
        <rect id="Rectangle_137" data-name="Rectangle 137" width="0.543" height="75.315" transform="translate(41.81 0)" fill="#366484"/>
        <rect id="Rectangle_138" data-name="Rectangle 138" width="0.543" height="75.315" transform="translate(42.353 0)" fill="#346383"/>
        <rect id="Rectangle_139" data-name="Rectangle 139" width="0.543" height="75.315" transform="translate(42.896 0)" fill="#336282"/>
        <rect id="Rectangle_140" data-name="Rectangle 140" width="0.543" height="75.315" transform="translate(43.439 0)" fill="#326181"/>
        <rect id="Rectangle_141" data-name="Rectangle 141" width="0.543" height="75.315" transform="translate(43.982 0)" fill="#306080"/>
        <rect id="Rectangle_142" data-name="Rectangle 142" width="0.543" height="75.315" transform="translate(44.525 0)" fill="#2f5e80"/>
        <rect id="Rectangle_143" data-name="Rectangle 143" width="0.543" height="75.315" transform="translate(45.068 0)" fill="#2d5d7f"/>
        <rect id="Rectangle_144" data-name="Rectangle 144" width="0.543" height="75.315" transform="translate(45.611 0)" fill="#2c5c7e"/>
        <rect id="Rectangle_145" data-name="Rectangle 145" width="0.543" height="75.315" transform="translate(46.154 0)" fill="#2a5b7d"/>
        <rect id="Rectangle_146" data-name="Rectangle 146" width="0.543" height="75.315" transform="translate(46.697 0)" fill="#295a7c"/>
        <rect id="Rectangle_147" data-name="Rectangle 147" width="0.543" height="75.315" transform="translate(47.24 0)" fill="#27587b"/>
        <rect id="Rectangle_148" data-name="Rectangle 148" width="0.543" height="75.315" transform="translate(47.783 0)" fill="#26577b"/>
        <rect id="Rectangle_149" data-name="Rectangle 149" width="0.543" height="75.315" transform="translate(48.326 0)" fill="#24567a"/>
        <rect id="Rectangle_150" data-name="Rectangle 150" width="0.543" height="75.315" transform="translate(48.869 0)" fill="#235579"/>
        <rect id="Rectangle_151" data-name="Rectangle 151" width="0.543" height="75.315" transform="translate(49.412 0)" fill="#215478"/>
        <rect id="Rectangle_152" data-name="Rectangle 152" width="0.543" height="75.315" transform="translate(49.955 0)" fill="#205277"/>
        <rect id="Rectangle_153" data-name="Rectangle 153" width="0.543" height="75.315" transform="translate(50.498 0)" fill="#1e5176"/>
        <rect id="Rectangle_154" data-name="Rectangle 154" width="0.543" height="75.315" transform="translate(51.041 0)" fill="#1d5075"/>
        <rect id="Rectangle_155" data-name="Rectangle 155" width="0.543" height="75.315" transform="translate(51.584 0)" fill="#1b4f74"/>
        <rect id="Rectangle_156" data-name="Rectangle 156" width="0.543" height="75.315" transform="translate(52.127 0)" fill="#194d73"/>
        <rect id="Rectangle_157" data-name="Rectangle 157" width="0.543" height="75.315" transform="translate(52.67 0)" fill="#184c73"/>
        <rect id="Rectangle_158" data-name="Rectangle 158" width="0.543" height="75.315" transform="translate(53.213 0)" fill="#164b72"/>
        <rect id="Rectangle_159" data-name="Rectangle 159" width="0.543" height="75.315" transform="translate(53.756 0)" fill="#154971"/>
        <rect id="Rectangle_160" data-name="Rectangle 160" width="0.543" height="75.315" transform="translate(54.299 0)" fill="#134870"/>
        <rect id="Rectangle_161" data-name="Rectangle 161" width="0.543" height="75.315" transform="translate(54.842 0)" fill="#11476f"/>
        <rect id="Rectangle_162" data-name="Rectangle 162" width="0.543" height="75.315" transform="translate(55.384 0)" fill="#10456e"/>
        <rect id="Rectangle_163" data-name="Rectangle 163" width="0.543" height="75.315" transform="translate(55.927 0)" fill="#0e446d"/>
        <path id="Path_65" data-name="Path 65" d="M56.471,75.315v0Z" fill="#0e446d"/>
      </g>
    </g>
  </g>
</svg>
